<svg xmlns="http://www.w3.org/2000/svg" width="24" height="24" viewBox="0 0 24 24">
  <g id="Arrow">
    <rect id="Path" width="24" height="24" fill="rgba(255,255,255,0)"/>
    <path id="check-circle-Regular_1_" d="M397.25,1094a9.75,9.75,0,1,0,9.75-9.75A9.761,9.761,0,0,0,397.25,1094Zm1.5,0a8.25,8.25,0,1,1,8.25,8.25A8.259,8.259,0,0,1,398.75,1094Z" transform="translate(-394.75 -1082.25)" fill="#404040"/>
    <path id="log-out-Regular_1_" d="M500.47,1093.47l4-4a.75.75,0,0,1,1.061,1.061l-2.72,2.72H511a.75.75,0,1,1,0,1.5h-8.189l2.72,2.72a.75.75,0,1,1-1.06,1.061l-4-4A.751.751,0,0,1,500.47,1093.47Z" transform="translate(-493.75 -1082.251)" fill="#404040"/>
  </g>
</svg>
