<svg xmlns="http://www.w3.org/2000/svg" width="24" height="24" viewBox="0 0 24 24">
  <g id="Arrow" transform="translate(-76 -5535)">
    <rect id="Path" width="24" height="24" transform="translate(76 5535)" fill="rgba(255,255,255,0)"/>
    <path id="check-circle-Regular_1_" d="M416.75,1094a9.75,9.75,0,1,1-9.75-9.75A9.761,9.761,0,0,1,416.75,1094Zm-1.5,0a8.25,8.25,0,1,0-8.25,8.25A8.259,8.259,0,0,0,415.25,1094Z" transform="translate(-319.25 4452.75)" fill="#404040"/>
    <path id="log-out-Regular_1_" d="M511.53,1093.47l-4-4a.75.75,0,0,0-1.061,1.061l2.72,2.72H501a.75.75,0,0,0,0,1.5h8.189l-2.72,2.72a.75.75,0,1,0,1.06,1.061l4-4A.751.751,0,0,0,511.53,1093.47Z" transform="translate(-418.25 4452.749)" fill="#404040"/>
  </g>
</svg>
